<svg xmlns="http://www.w3.org/2000/svg" width="960" height="520" viewBox="0 0 960 520">
<rect width="100%" height="100%" rx="18" fill="#f8fafc"/>
<text x="48" y="52" fill="#172033" font-size="28" font-weight="700">Raw crossings overstate the sample</text>
<text x="48" y="78" fill="#5b6474" font-size="15">Crossings separated by more than the 30-minute recross window count as episodes</text>
<line x1="120" y1="400.0" x2="880" y2="400.0" stroke="#dce2ea"/>
<text x="106" y="405.0" fill="#5b6474" font-size="13" text-anchor="end">0</text>
<line x1="120" y1="309.375" x2="880" y2="309.375" stroke="#dce2ea"/>
<text x="106" y="314.375" fill="#5b6474" font-size="13" text-anchor="end">10</text>
<line x1="120" y1="218.75" x2="880" y2="218.75" stroke="#dce2ea"/>
<text x="106" y="223.75" fill="#5b6474" font-size="13" text-anchor="end">20</text>
<line x1="120" y1="128.125" x2="880" y2="128.125" stroke="#dce2ea"/>
<text x="106" y="133.125" fill="#5b6474" font-size="13" text-anchor="end">30</text>
<rect x="180.0" y="110.0" width="28" height="290.0" rx="5" fill="#3867d6"/>
<rect x="222.0" y="345.625" width="28" height="54.375" rx="5" fill="#f2994a"/>
<text x="194.0" y="102.0" fill="#172033" font-size="13" text-anchor="middle">32</text>
<text x="236.0" y="337.625" fill="#172033" font-size="13" text-anchor="middle">6</text>
<text x="215.0" y="428" fill="#172033" font-size="14" font-weight="600" text-anchor="middle">0DTE</text>
<rect x="370.0" y="245.9375" width="28" height="154.0625" rx="5" fill="#3867d6"/>
<rect x="412.0" y="381.875" width="28" height="18.125" rx="5" fill="#f2994a"/>
<text x="384.0" y="237.9375" fill="#172033" font-size="13" text-anchor="middle">17</text>
<text x="426.0" y="373.875" fill="#172033" font-size="13" text-anchor="middle">2</text>
<text x="405.0" y="428" fill="#172033" font-size="14" font-weight="600" text-anchor="middle">1-7DTE</text>
<rect x="560.0" y="400.0" width="28" height="0.0" rx="5" fill="#3867d6"/>
<rect x="602.0" y="400.0" width="28" height="0.0" rx="5" fill="#f2994a"/>
<text x="574.0" y="392.0" fill="#172033" font-size="13" text-anchor="middle">0</text>
<text x="616.0" y="392.0" fill="#172033" font-size="13" text-anchor="middle">0</text>
<text x="595.0" y="428" fill="#172033" font-size="14" font-weight="600" text-anchor="middle">8-30DTE</text>
<rect x="750.0" y="227.8125" width="28" height="172.1875" rx="5" fill="#3867d6"/>
<rect x="792.0" y="363.75" width="28" height="36.25" rx="5" fill="#f2994a"/>
<text x="764.0" y="219.8125" fill="#172033" font-size="13" text-anchor="middle">19</text>
<text x="806.0" y="355.75" fill="#172033" font-size="13" text-anchor="middle">4</text>
<text x="785.0" y="428" fill="#172033" font-size="14" font-weight="600" text-anchor="middle">aggregate</text>
<rect x="330" y="458" width="16" height="16" rx="3" fill="#3867d6"/>
<text x="354" y="471" fill="#5b6474" font-size="14">raw crossings</text>
<rect x="500" y="458" width="16" height="16" rx="3" fill="#f2994a"/>
<text x="524" y="471" fill="#5b6474" font-size="14">independent episodes</text>
</svg>